<svg width="60" height="60" viewBox="0 0 60 60" fill="none" xmlns="http://www.w3.org/2000/svg">
    <rect width="60" height="60" rx="30" fill="#F5F5F5"/>
    <g clip-path="url(#clip0_31_450)">
    <path d="M44.8213 20.1745C44.9824 20.5693 45.0071 21.0066 44.8915 21.4171C44.7758 21.8276 44.5265 22.1877 44.183 22.4404L30.0255 32.4809L15.8298 22.4404C15.4863 22.1877 15.2369 21.8276 15.1213 21.4171C15.0057 21.0066 15.0304 20.5693 15.1915 20.1745C15.0694 20.4298 15.0041 20.7085 15 20.9915V39.7447C15 40.2734 15.2096 40.7806 15.5829 41.1551C15.9562 41.5296 16.4627 41.7409 16.9915 41.7426H43.0085C43.5373 41.7409 44.0438 41.5296 44.4171 41.1551C44.7904 40.7806 45 40.2734 45 39.7447V20.9915C44.9999 20.7095 44.939 20.4308 44.8213 20.1745Z" fill="white"/>
    <path d="M16.9915 19C16.4633 19 15.9568 19.2098 15.5833 19.5833C15.2098 19.9568 15 20.4633 15 20.9915V39.7447C15 40.2734 15.2096 40.7806 15.5829 41.1551C15.9562 41.5296 16.4627 41.7409 16.9915 41.7426H18.7915V19H16.9915Z" fill="#D72B27"/>
    <path d="M16.9915 41.4617C16.5372 41.46 16.1021 41.2784 15.7815 40.9565C15.4609 40.6347 15.2809 40.199 15.2809 39.7447V20.9915C15.2809 20.5378 15.4611 20.1027 15.7819 19.7819C16.1027 19.4611 16.5378 19.2809 16.9915 19.2809H18.5106V41.4617H16.9915Z" fill="#D54B3D"/>
    <path d="M43.0085 19H41.2085V41.7426H43.0085C43.5373 41.7409 44.0438 41.5296 44.4171 41.1551C44.7904 40.7806 45 40.2734 45 39.7447V20.9915C45 20.4633 44.7902 19.9568 44.4167 19.5833C44.0432 19.2098 43.5367 19 43.0085 19Z" fill="#D72B27"/>
    <path d="M41.4894 41.4617V19.2809H43.0085C43.4622 19.2809 43.8973 19.4611 44.2181 19.7819C44.5389 20.1027 44.7192 20.5378 44.7192 20.9915V39.7447C44.7192 40.199 44.5391 40.6347 44.2185 40.9565C43.8979 41.2784 43.4628 41.46 43.0085 41.4617H41.4894Z" fill="#D54B3D"/>
    <path d="M44.617 19.7979C44.3226 19.3925 43.881 19.1187 43.3869 19.0351C42.8929 18.9516 42.3858 19.065 41.9745 19.3511L30 27.8468L18.0255 19.3511C17.6142 19.065 17.1071 18.9516 16.6131 19.0351C16.119 19.1187 15.6774 19.3925 15.383 19.7979C15.0969 20.2092 14.9835 20.7163 15.067 21.2103C15.1506 21.7044 15.4244 22.146 15.8298 22.4404L29.9745 32.4808L44.1702 22.4404C44.5756 22.146 44.8494 21.7044 44.933 21.2103C45.0165 20.7163 44.9031 20.2092 44.617 19.7979Z" fill="#D72B27"/>
    <path d="M30 31.9638L29.9106 32.0915L15.9957 22.1915C15.7262 21.9912 15.5257 21.7119 15.4223 21.3924C15.3189 21.0729 15.3177 20.7291 15.4188 20.4088C15.5199 20.0886 15.7184 19.8079 15.9865 19.6057C16.2547 19.4035 16.5792 19.29 16.9149 19.2808C17.2547 19.2774 17.5872 19.3801 17.866 19.5745L29.9936 28.1915L42.134 19.5745C42.4128 19.3801 42.7453 19.2774 43.0851 19.2808C43.4208 19.29 43.7453 19.4035 44.0135 19.6057C44.2816 19.8079 44.4801 20.0886 44.5812 20.4088C44.6823 20.7291 44.6811 21.0729 44.5777 21.3924C44.4743 21.7119 44.2738 21.9912 44.0043 22.1915L30.0894 32.0915L30 31.9638Z" fill="#D54B3D"/>
    <path d="M18.0255 19.3511L30 27.8468L41.9745 19.3511C42.2814 19.1338 42.6454 19.0117 43.0213 19H16.9787C17.3546 19.0117 17.7186 19.1338 18.0255 19.3511Z" fill="white"/>
    <g style="mix-blend-mode:multiply">
    <path d="M35.1192 41.7425H43.0085C43.5373 41.7409 44.0438 41.5296 44.4171 41.1551C44.7904 40.7806 45 40.2734 45 39.7447V21.0745H44.9553C44.9288 21.3448 44.8451 21.6064 44.7098 21.8419C44.5744 22.0774 44.3905 22.2814 44.1702 22.4404L30.0255 32.4808L16.3085 22.7787L35.1192 41.7425Z" fill="#E4E5E6"/>
    </g>
    <g style="mix-blend-mode:multiply">
    <path d="M30.0255 32.4808L18.7915 41.7425V24.5404L30.0255 32.4808Z" fill="#EFF0F0"/>
    </g>
    </g>
    <defs>
    <clipPath id="clip0_31_450">
    <rect width="30" height="22.7426" fill="white" transform="translate(15 19)"/>
    </clipPath>
    </defs>
    </svg>
    