<svg width="60" height="60" viewBox="0 0 60 60" fill="none" xmlns="http://www.w3.org/2000/svg">
    <rect width="60" height="60" rx="30" fill="#006CDB" />
    <path
        d="M18.6197 22.2992C20.6188 22.2992 22.2394 20.6652 22.2394 18.6496C22.2394 16.634 20.6188 15 18.6197 15C16.6206 15 15 16.634 15 18.6496C15 20.6652 16.6206 22.2992 18.6197 22.2992Z"
        fill="white" />
    <path d="M21.669 24.876H15.5807V44.9941H21.669V24.876Z" fill="white" />
    <path
        d="M31.4827 27.6644V24.8761H25.445V44.9942H31.4827V37.0439C31.4827 33.6001 31.9387 31.9534 32.7626 31.0585L32.8103 31.0045C34.0657 29.6322 36.4098 29.4176 37.5883 30.7738C38.2384 31.5183 38.5613 32.5753 38.5555 33.8716V45H45V34.3942C45 26.7636 42.1781 24.6746 38.5251 24.3914L38.208 24.3666C36.1347 24.206 33.252 24.6235 31.4827 27.6644Z"
        fill="white" />
</svg>
    