<svg width="61" height="61" viewBox="0 0 61 61" fill="none" xmlns="http://www.w3.org/2000/svg">
    <rect x="0.333328" width="60" height="60" rx="30" fill="url(#paint0_linear_31_531)"/>
    <g filter="url(#filter0_ddd_31_531)">
    <path d="M45.246 32.4511C45.246 22.708 35.223 19.3619 29.9936 19.3619C21.5879 19.3619 14.5018 25.4472 14.5018 32.4511C14.5018 38.9455 20.3504 42.3327 21.2998 43.024C22.2996 43.6691 21.8108 44.8151 21.4194 45.2882C20.1036 46.8792 19.8039 47.2859 20.2059 47.2859C21.5234 47.2859 22.3594 46.8956 23.1728 46.379C24.7997 45.263 25.4788 44.8946 26.2312 44.8946C26.9226 44.874 28.4926 45.1958 29.9936 45.1958C36.5788 45.1958 45.246 40.4719 45.246 32.4511Z" fill="white"/>
    </g>
    <mask id="mask0_31_531" style="mask-type:alpha" maskUnits="userSpaceOnUse" x="11" y="14" width="39" height="35">
    <path d="M49.766 30.1264C49.766 18.1416 37.2365 14.0256 30.6993 14.0256C20.1915 14.0256 11.3333 21.5109 11.3333 30.1264C11.3333 38.115 18.6446 42.2815 19.8314 43.1319C21.0813 43.9254 20.4702 45.3351 19.9809 45.9171C18.336 47.874 17.9614 48.3744 18.4639 48.3744C20.111 48.3744 21.156 47.8943 22.1728 47.2588C24.2065 45.8861 25.0555 45.4329 25.996 45.4329C26.8603 45.4075 28.8229 45.8034 30.6993 45.8034C38.9313 45.8034 49.766 39.9926 49.766 30.1264Z" fill="white"/>
    </mask>
    <g mask="url(#mask0_31_531)">
    <g filter="url(#filter1_i_31_531)">
    <path d="M49.7724 30.0882C49.7724 18.1128 37.2408 14 30.7025 14C20.193 14 11.3333 21.4795 11.3333 30.0882C11.3333 38.0707 18.6458 42.2339 19.8328 43.0837C21.0829 43.8766 20.4717 45.2852 19.9824 45.8667C18.3372 47.8222 17.9625 48.3222 18.4651 48.3222C20.1124 48.3222 21.1576 47.8424 22.1746 47.2074C24.2086 45.8358 25.0578 45.3829 25.9985 45.3829C26.8629 45.3575 28.8258 45.7531 30.7025 45.7531C38.9359 45.7531 49.7724 39.9468 49.7724 30.0882Z" fill="white"/>
    <path d="M49.7724 30.0882C49.7724 18.1128 37.2408 14 30.7025 14C20.193 14 11.3333 21.4795 11.3333 30.0882C11.3333 38.0707 18.6458 42.2339 19.8328 43.0837C21.0829 43.8766 20.4717 45.2852 19.9824 45.8667C18.3372 47.8222 17.9625 48.3222 18.4651 48.3222C20.1124 48.3222 21.1576 47.8424 22.1746 47.2074C24.2086 45.8358 25.0578 45.3829 25.9985 45.3829C26.8629 45.3575 28.8258 45.7531 30.7025 45.7531C38.9359 45.7531 49.7724 39.9468 49.7724 30.0882Z" fill="url(#paint1_radial_31_531)"/>
    <path d="M49.7724 30.0882C49.7724 18.1128 37.2408 14 30.7025 14C20.193 14 11.3333 21.4795 11.3333 30.0882C11.3333 38.0707 18.6458 42.2339 19.8328 43.0837C21.0829 43.8766 20.4717 45.2852 19.9824 45.8667C18.3372 47.8222 17.9625 48.3222 18.4651 48.3222C20.1124 48.3222 21.1576 47.8424 22.1746 47.2074C24.2086 45.8358 25.0578 45.3829 25.9985 45.3829C26.8629 45.3575 28.8258 45.7531 30.7025 45.7531C38.9359 45.7531 49.7724 39.9468 49.7724 30.0882Z" fill="url(#paint2_linear_31_531)"/>
    <path d="M49.7724 30.0882C49.7724 18.1128 37.2408 14 30.7025 14C20.193 14 11.3333 21.4795 11.3333 30.0882C11.3333 38.0707 18.6458 42.2339 19.8328 43.0837C21.0829 43.8766 20.4717 45.2852 19.9824 45.8667C18.3372 47.8222 17.9625 48.3222 18.4651 48.3222C20.1124 48.3222 21.1576 47.8424 22.1746 47.2074C24.2086 45.8358 25.0578 45.3829 25.9985 45.3829C26.8629 45.3575 28.8258 45.7531 30.7025 45.7531C38.9359 45.7531 49.7724 39.9468 49.7724 30.0882Z" fill="url(#paint3_radial_31_531)"/>
    </g>
    <mask id="mask1_31_531" style="mask-type:alpha" maskUnits="userSpaceOnUse" x="18" y="41" width="8" height="8">
    <path d="M18.7979 48.3131C21.8135 48.1013 22.4544 46.6605 25.0836 45.5124C26.03 45.1283 25.5041 42.7921 23.5893 42.1155C21.9759 41.5454 19.7876 42.7169 20.3524 43.5714C20.8699 44.3544 20.5748 45.1471 19.7166 46.201C19.1896 46.8482 17.2168 48.5188 18.7979 48.3131Z" fill="url(#paint4_linear_31_531)"/>
    </mask>
    <g mask="url(#mask1_31_531)">
    <g filter="url(#filter2_f_31_531)">
    <path d="M20.5057 43.9113C20.9993 45.4438 18.4671 46.8519 18.2581 48.1392C18.2842 48.3072 18.6585 48.1725 19.6904 47.6397C21.1265 46.8722 23.0839 44.6637 22.9799 43.1601C22.8874 41.3966 20.0197 42.7962 20.5057 43.9113Z" fill="white" fill-opacity="0.9"/>
    </g>
    <g filter="url(#filter3_f_31_531)">
    <path d="M22.1809 43.5528C21.6686 45.6496 20.1923 46.8917 18.3223 48.2801C17.7141 48.7317 18.59 48.5346 19.6914 48.1662C21.6742 47.8431 24.8539 45.5845 24.9819 44.0827C25.1613 42.326 22.3859 42.7311 22.1809 43.5528Z" fill="url(#paint5_linear_31_531)" fill-opacity="0.9"/>
    </g>
    </g>
    </g>
    <defs>
    <filter id="filter0_ddd_31_531" x="7.18998" y="14.1741" width="45.3678" height="46.5516" filterUnits="userSpaceOnUse" color-interpolation-filters="sRGB">
    <feFlood flood-opacity="0" result="BackgroundImageFix"/>
    <feColorMatrix in="SourceAlpha" type="matrix" values="0 0 0 0 0 0 0 0 0 0 0 0 0 0 0 0 0 0 127 0" result="hardAlpha"/>
    <feOffset dy="0.905267"/>
    <feGaussianBlur stdDeviation="3.04657"/>
    <feColorMatrix type="matrix" values="0 0 0 0 0 0 0 0 0 0 0 0 0 0 0 0 0 0 0.58 0"/>
    <feBlend mode="normal" in2="BackgroundImageFix" result="effect1_dropShadow_31_531"/>
    <feColorMatrix in="SourceAlpha" type="matrix" values="0 0 0 0 0 0 0 0 0 0 0 0 0 0 0 0 0 0 127 0" result="hardAlpha"/>
    <feOffset dy="2.26317"/>
    <feGaussianBlur stdDeviation="1.51458"/>
    <feColorMatrix type="matrix" values="0 0 0 0 0 0 0 0 0 0 0 0 0 0 0 0 0 0 0.1 0"/>
    <feBlend mode="normal" in2="effect1_dropShadow_31_531" result="effect2_dropShadow_31_531"/>
    <feColorMatrix in="SourceAlpha" type="matrix" values="0 0 0 0 0 0 0 0 0 0 0 0 0 0 0 0 0 0 127 0" result="hardAlpha"/>
    <feOffset dy="6.12796"/>
    <feGaussianBlur stdDeviation="3.65589"/>
    <feColorMatrix type="matrix" values="0 0 0 0 0 0 0 0 0 0 0 0 0 0 0 0 0 0 0.05 0"/>
    <feBlend mode="normal" in2="effect2_dropShadow_31_531" result="effect3_dropShadow_31_531"/>
    <feBlend mode="normal" in="SourceGraphic" in2="effect3_dropShadow_31_531" result="shape"/>
    </filter>
    <filter id="filter1_i_31_531" x="10.9851" y="10.9012" width="38.7872" height="37.421" filterUnits="userSpaceOnUse" color-interpolation-filters="sRGB">
    <feFlood flood-opacity="0" result="BackgroundImageFix"/>
    <feBlend mode="normal" in="SourceGraphic" in2="BackgroundImageFix" result="shape"/>
    <feColorMatrix in="SourceAlpha" type="matrix" values="0 0 0 0 0 0 0 0 0 0 0 0 0 0 0 0 0 0 127 0" result="hardAlpha"/>
    <feOffset dx="-0.34818" dy="-3.0988"/>
    <feGaussianBlur stdDeviation="2.15871"/>
    <feComposite in2="hardAlpha" operator="arithmetic" k2="-1" k3="1"/>
    <feColorMatrix type="matrix" values="0 0 0 0 0.580392 0 0 0 0 0.952941 0 0 0 0 0.568627 0 0 0 0.64 0"/>
    <feBlend mode="normal" in2="shape" result="effect1_innerShadow_31_531"/>
    </filter>
    <filter id="filter2_f_31_531" x="17.3529" y="41.4175" width="6.53628" height="7.69499" filterUnits="userSpaceOnUse" color-interpolation-filters="sRGB">
    <feFlood flood-opacity="0" result="BackgroundImageFix"/>
    <feBlend mode="normal" in="SourceGraphic" in2="BackgroundImageFix" result="shape"/>
    <feGaussianBlur stdDeviation="0.452633" result="effect1_foregroundBlur_31_531"/>
    </filter>
    <filter id="filter3_f_31_531" x="17.4264" y="42.1539" width="8.26018" height="7.08376" filterUnits="userSpaceOnUse" color-interpolation-filters="sRGB">
    <feFlood flood-opacity="0" result="BackgroundImageFix"/>
    <feBlend mode="normal" in="SourceGraphic" in2="BackgroundImageFix" result="shape"/>
    <feGaussianBlur stdDeviation="0.34818" result="effect1_foregroundBlur_31_531"/>
    </filter>
    <linearGradient id="paint0_linear_31_531" x1="30.3333" y1="0" x2="30.3333" y2="58.355" gradientUnits="userSpaceOnUse">
    <stop stop-color="#57F372"/>
    <stop offset="0.885788" stop-color="#26CE43"/>
    <stop offset="1" stop-color="#1EC83B"/>
    </linearGradient>
    <radialGradient id="paint1_radial_31_531" cx="0" cy="0" r="1" gradientUnits="userSpaceOnUse" gradientTransform="translate(30.551 12.7393) rotate(90) scale(26.5803 23.1975)">
    <stop stop-color="#F9FCF8"/>
    <stop offset="0.411202" stop-color="#E9F0E5"/>
    <stop offset="0.684249" stop-color="#D8E7D4"/>
    <stop offset="0.84098" stop-color="#CADFC5"/>
    <stop offset="1" stop-color="#BBD5B5"/>
    </radialGradient>
    <linearGradient id="paint2_linear_31_531" x1="24.6135" y1="18.2536" x2="30.5407" y2="38.5224" gradientUnits="userSpaceOnUse">
    <stop offset="0.0245846" stop-color="white"/>
    <stop offset="1" stop-color="white" stop-opacity="0"/>
    </linearGradient>
    <radialGradient id="paint3_radial_31_531" cx="0" cy="0" r="1" gradientUnits="userSpaceOnUse" gradientTransform="translate(22.0191 40.5721) rotate(120.553) scale(10.2415 17.8535)">
    <stop stop-color="#C2E4BB"/>
    <stop offset="0.347403" stop-color="#C1E9BA" stop-opacity="0"/>
    </radialGradient>
    <linearGradient id="paint4_linear_31_531" x1="23.6937" y1="41.5236" x2="22.2156" y2="44.8494" gradientUnits="userSpaceOnUse">
    <stop offset="0.264775" stop-color="white" stop-opacity="0"/>
    <stop offset="1" stop-color="white"/>
    </linearGradient>
    <linearGradient id="paint5_linear_31_531" x1="21.5698" y1="45.6843" x2="23.3281" y2="47.3556" gradientUnits="userSpaceOnUse">
    <stop stop-color="#A9C8A2"/>
    <stop offset="0.940352" stop-color="#C1DCBA" stop-opacity="0"/>
    </linearGradient>
    </defs>
    </svg>
    