<svg width="60" height="60" viewBox="0 0 60 60" fill="none" xmlns="http://www.w3.org/2000/svg">
    <g clip-path="url(#clip0_7_2353)">
        <path d="M60 0H0V60H60V0Z" fill="white" />
        <path
            d="M25.0989 25.5537C25.85 24.8578 26.4865 24.3402 26.6012 24.2194C27.4155 23.1785 27.0657 21.7291 26.4292 20.8032L26.3145 20.6249C25.506 19.4114 23.2524 16.1044 22.2661 15.4085C21.8474 15.1525 21.3687 15.0117 20.8785 15.0002C20.3497 14.9947 19.8298 15.136 19.3761 15.4085C19.1118 15.5821 18.8774 15.7977 18.6823 16.0469L25.0989 25.4387V25.5537Z"
            fill="black" />
        <path
            d="M34.0271 35.4114C33.5053 36.0498 32.8802 36.7457 32.41 37.2691C32.2896 37.3841 32.1749 37.4416 32.0602 37.3841C30.3858 36.9815 28.247 35.5897 26.326 33.6745C24.405 31.7593 23.0288 29.6141 22.6274 27.9233C22.6012 27.8607 22.5984 27.7908 22.6195 27.7264C22.6406 27.6619 22.6841 27.6073 22.7421 27.5724C23.2639 27.1123 23.9578 26.5314 24.5943 25.9506C24.5312 25.9506 24.4738 25.8931 24.4165 25.8355L18.0687 16.5127C17.2028 17.3812 16.1649 18.4222 15.9872 18.658C15.9298 18.7155 15.8725 18.773 15.8725 18.8305C15.8296 18.9171 15.7713 18.995 15.7005 19.0606C14.1407 22.1375 15.4711 28.3373 16.9161 31.7133C18.7052 35.9463 24.0266 41.2834 28.247 43.0778C31.093 44.2529 34.1275 44.9017 37.2038 44.993C38.4566 45.045 39.7045 44.8068 40.8508 44.2971C40.9655 44.2396 41.0228 44.1821 41.1375 44.1246C41.2522 44.0671 41.2522 44.0671 41.3095 44.0095C41.5446 43.8313 42.5825 42.7903 43.4484 41.9218L34.0271 35.4114Z"
            fill="black" />
        <path
            d="M44.5953 37.7924C44.0218 36.8607 41.2981 35.0663 39.8531 34.0771C39.6237 33.9046 39.3943 33.732 39.2166 33.617C38.6392 33.2164 37.9573 32.9945 37.2554 32.9786C36.7342 32.9715 36.2249 33.1351 35.8047 33.4445C35.69 33.5595 35.1739 34.1346 34.5374 34.8938L44.0218 41.4445C44.3143 41.0936 44.5437 40.8693 44.6583 40.7486C44.8931 40.2892 45.0103 39.7786 44.9993 39.2625C44.9883 38.7465 44.8494 38.2413 44.5953 37.7924Z"
            fill="black" />
    </g>
    <defs>
        <clipPath id="clip0_7_2353">
            <rect width="60" height="60" rx="30" fill="white" />
        </clipPath>
    </defs>
</svg>
    