<svg width="60" height="60" viewBox="0 0 60 60" fill="none" xmlns="http://www.w3.org/2000/svg">
    <rect width="60" height="60" rx="30" fill="url(#paint0_linear_31_543)" />
    <path
        d="M29.6802 17.575C31.3091 17.5748 32.922 17.8935 34.4267 18.5128C35.9314 19.1321 37.2983 20.0398 38.4492 21.1841C39.6002 22.3284 40.5125 23.6868 41.1342 25.1815C41.7558 26.6762 42.0745 28.2779 42.0719 29.895C42.063 36.5856 36.545 42.1083 29.8058 42.1782C27.3818 42.2071 25.003 41.5261 22.9667 40.2203C22.9375 40.2014 22.9046 40.1888 22.8701 40.1833C22.8357 40.1778 22.8005 40.1796 22.7668 40.1885L20.7882 40.7076L18.3342 41.3653L18.9941 38.9226L19.5067 37.0423C19.516 37.0078 19.5176 36.9718 19.5114 36.9366C19.5052 36.9015 19.4914 36.8681 19.4708 36.8388C18.193 34.992 17.4476 32.8337 17.3151 30.5971C17.1825 28.3604 17.6679 26.1303 18.7187 24.1475C19.7696 22.1647 21.346 20.5045 23.2778 19.3462C25.2096 18.1879 27.4234 17.5754 29.6802 17.575ZM29.6802 15C27.0544 15.0002 24.4747 15.6855 22.1995 16.987C19.9244 18.2886 18.0337 20.1609 16.7168 22.4163C15.3999 24.6717 14.7031 27.231 14.6962 29.8379C14.6893 32.4448 15.3724 35.0078 16.6773 37.27C16.7097 37.3268 16.7188 37.3938 16.7029 37.4571L16.4876 38.2535L15.8302 40.6923L14.6667 45L19.0057 43.8461L21.4622 43.1922L22.381 42.9479C22.4427 42.9314 22.5083 42.9391 22.5643 42.9695C24.5711 44.0448 26.7987 44.6511 29.0773 44.7424C31.3559 44.8336 33.6254 44.4074 35.713 43.4961C37.8006 42.5848 39.6511 41.2126 41.1236 39.4839C42.5962 37.7551 43.6519 35.7156 44.2104 33.5205C44.7688 31.3255 44.8153 29.0328 44.3463 26.8172C43.8772 24.6016 42.905 22.5216 41.5037 20.7354C40.1024 18.9493 38.309 17.5042 36.26 16.5103C34.2111 15.5164 31.9607 14.9998 29.6802 15Z"
        fill="white" />
    <path
        d="M24.4825 23.1029C24.6722 23.0158 25.2499 22.9491 25.8542 23.0525C25.9637 23.073 26.067 23.1218 26.1551 23.1949C26.2432 23.2679 26.3135 23.3629 26.3598 23.4717C26.9173 24.7495 27.1032 25.2557 27.4976 26.2286C27.6383 26.5767 27.6751 26.9632 27.6028 27.3347C27.5306 27.7062 27.3529 28.0444 27.0943 28.3025C26.8503 28.5474 26.6215 28.7774 26.5204 28.889C26.2309 29.221 28.069 33.1714 31.8729 34.2778C31.9612 34.3024 32.0541 34.2993 32.1408 34.2689C32.2275 34.2386 32.3043 34.1821 32.3622 34.1063C32.7414 33.6028 33.1207 33.0775 33.4999 32.5713C33.593 32.4493 33.7196 32.3622 33.8616 32.3225C34.0036 32.2829 34.1536 32.2928 34.29 32.3509C35.5542 32.8816 35.9132 33.1823 37.1774 33.7117C37.5023 33.8477 37.6667 34.0519 37.6667 34.4288C37.6667 35.6345 37.3089 37.2334 35.5921 37.8498C35.3307 37.9195 35.0643 37.965 34.7957 37.9859C29.8553 38.318 23.3524 32.7183 22.6823 27.4112C22.6823 27.3853 22.6823 27.437 22.6823 27.4112C22.4965 24.578 24.0148 23.3165 24.4825 23.1029Z"
        fill="white" />
    <defs>
        <linearGradient id="paint0_linear_31_543" x1="29.9991" y1="0" x2="29.9991" y2="60"
            gradientUnits="userSpaceOnUse">
            <stop stop-color="#66FF74" />
            <stop offset="1" stop-color="#00B822" />
        </linearGradient>
    </defs>
</svg>
    