<svg width="95" height="83" viewBox="0 0 95 83" fill="none" xmlns="http://www.w3.org/2000/svg">
    <g clip-path="url(#clip0_7_2395)">
    <path d="M50.8416 49.3142C52.3852 47.8502 53.8492 46.4817 55.3768 45.0177C55.8383 45.4474 56.4111 45.9884 56.9681 46.5295C57.3182 46.8636 57.6524 47.1978 58.0024 47.5161C58.639 48.0889 59.1482 48.0889 59.7369 47.5002C61.3282 45.9089 62.9036 44.2858 64.479 42.6786C67.1842 39.9256 69.9053 37.1568 72.6105 34.4038C74.1222 32.8762 75.6339 31.3486 77.1297 29.8209C77.7344 29.2003 77.7185 28.6911 77.0502 28.0546C73.9631 25.1107 70.8601 22.1987 67.757 19.2707C64.9882 16.645 62.2034 14.0353 59.4346 11.4097C58.7344 10.7414 58.2093 10.7095 57.525 11.4097C52.6557 16.3904 47.7704 21.3712 42.9011 26.3519C42.0418 27.2271 41.1666 28.0705 40.3232 28.9457C39.6071 29.6777 39.6071 30.1233 40.3391 30.8394C42.3282 32.7489 44.3492 34.6266 46.3383 36.5203C46.5292 36.6953 46.7202 36.8863 46.8793 37.0454C45.4153 38.5253 43.9991 39.9734 42.5033 41.4851C41.453 40.4985 40.4187 39.5278 39.3843 38.5412C37.7612 37.0136 36.1699 35.47 34.5309 33.9583C32.7328 32.2874 32.0962 30.171 32.9874 27.9909C33.3215 27.1635 33.958 26.4156 34.5946 25.7631C39.9254 20.305 45.288 14.8628 50.6348 9.42059C51.9874 8.03617 53.34 6.65175 54.7085 5.28324C56.8408 3.15091 60.1189 3.135 62.2989 5.20368C65.6406 8.37034 68.9982 11.537 72.3559 14.7037C75.9999 18.1409 79.6599 21.5621 83.288 24.9993C85.6113 27.2112 85.6113 30.4097 83.3517 32.7012C77.639 38.4935 71.9262 44.2857 66.2135 50.094C65.2269 51.0965 64.2403 52.0831 63.2696 53.1174C60.9304 55.5998 57.9388 55.8385 55.3609 53.6107C53.8333 52.2581 52.417 50.7941 50.8416 49.3142Z" fill="white"/>
    <path d="M50.5393 22.1189C51.9238 20.7026 53.2286 19.35 54.5653 18.0452C54.6767 17.9338 55.17 17.9975 55.3291 18.1407C56.7454 19.4296 58.1139 20.7504 59.5142 22.0552C60.6758 23.1532 61.8216 24.2512 62.9991 25.3174C65.3861 27.5134 65.4179 30.7596 63.0946 33.1147C56.3635 39.9413 49.6005 46.768 42.9171 53.6423C40.7211 55.902 37.2043 55.902 35.0879 53.8333C32.1918 50.9849 29.216 48.232 26.2722 45.4472C22.3417 41.7395 18.3953 38.0318 14.4489 34.34C11.8551 31.9053 11.7755 28.8819 14.2738 26.3358C20.6867 19.8115 27.1155 13.3031 33.5125 6.76294C34.5946 5.64904 35.6449 4.53514 37.2521 4.23279C38.8911 3.93045 40.4346 4.18506 41.7236 5.31487C43.1717 6.5879 44.5561 7.9405 45.9882 9.26127C46.3065 9.56361 46.5293 9.85005 46.1315 10.2638C44.8584 11.5686 43.6013 12.8894 42.2964 14.242C41.278 13.3031 40.4187 12.4757 39.5435 11.68C38.7479 10.964 38.3819 10.948 37.6658 11.6959C35.1675 14.2261 32.701 16.7722 30.2186 19.3023C27.6088 21.9439 24.9832 24.5536 22.3735 27.1951C21.7529 27.8157 21.1482 28.4522 20.5435 29.0728C19.6047 30.0594 19.6047 30.3618 20.5753 31.2847C22.7077 33.3216 24.84 35.3425 26.9723 37.3635C30.5686 40.7688 34.1968 44.1583 37.7931 47.5636C38.8115 48.5184 39.2253 48.5343 40.1959 47.5477C45.8928 41.7395 51.5896 35.9313 57.2864 30.1231C57.907 29.4866 57.9229 28.9933 57.2546 28.3567C55.2495 26.4631 53.2445 24.5695 51.2395 22.6918C51.0167 22.5008 50.8099 22.3417 50.5393 22.1189Z" fill="white"/>
    <path d="M12.5244 59.1431H13.9674L17.3605 65.6888H17.4775L20.8705 59.1431H22.3135V67.0288H21.1825V61.0375H21.085L17.965 67.0288H16.873L13.7529 61.0375H13.6554V67.0288H12.5244V59.1431Z" fill="white"/>
    <path d="M25.0122 67.0288V59.1431H31.0378V59.9902H26.2212V62.6547H30.7258V63.5018H26.2212V66.1817H31.1158V67.0288H25.0122Z" fill="white"/>
    <path d="M32.9455 59.9902V59.1431H40.4336V59.9902H37.2941V67.0288H36.085V59.9902H32.9455Z" fill="white"/>
    <path d="M41.8172 67.0288H40.5497L44.2158 59.1431H45.4638L49.1298 67.0288H47.8623L44.8788 60.3906H44.8008L41.8172 67.0288ZM42.2852 63.9484H47.3943V64.7955H42.2852V63.9484Z" fill="white"/>
    <path d="M54.0406 67.0288H50.9595V59.1431H54.1771C55.1456 59.1431 55.9744 59.3009 56.6634 59.6167C57.3524 59.9298 57.8805 60.3803 58.2478 60.9682C58.615 61.5535 58.7986 62.2542 58.7986 63.0705C58.7986 63.892 58.6134 64.5992 58.2429 65.1921C57.8724 65.7825 57.3329 66.2369 56.6244 66.5552C55.9159 66.8709 55.0546 67.0288 54.0406 67.0288ZM52.1686 66.1817H53.9626C54.7881 66.1817 55.4722 66.0559 56.015 65.8044C56.5577 65.5528 56.9624 65.1947 57.2289 64.7301C57.4954 64.2655 57.6286 63.7123 57.6286 63.0705C57.6286 62.4339 57.497 61.8859 57.2337 61.4264C56.9705 60.9643 56.5772 60.6101 56.054 60.3637C55.5307 60.1147 54.8791 59.9902 54.0991 59.9902H52.1686V66.1817Z" fill="white"/>
    <path d="M61.0415 67.0288H59.774L63.44 59.1431H64.688L68.3541 67.0288H67.0866L64.103 60.3906H64.025L61.0415 67.0288ZM61.5095 63.9484H66.6186V64.7955H61.5095V63.9484Z" fill="white"/>
    <path d="M68.4714 59.9902V59.1431H75.9595V59.9902H72.82V67.0288H71.611V59.9902H68.4714Z" fill="white"/>
    <path d="M77.3432 67.0288H76.0757L79.7417 59.1431H80.9897L84.6558 67.0288H83.3882L80.4047 60.3906H80.3267L77.3432 67.0288ZM77.8112 63.9484H82.9202V64.7955H77.8112V63.9484Z" fill="white"/>
    <path d="M13.4967 72.2457C13.4382 71.8674 13.201 71.5737 12.7849 71.3646C12.3689 71.1555 11.8586 71.0509 11.2541 71.0509C10.8121 71.0509 10.4253 71.1057 10.0938 71.2152C9.76554 71.3247 9.50877 71.4753 9.32351 71.667C9.1415 71.8587 9.0505 72.0765 9.0505 72.3204C9.0505 72.5245 9.11388 72.7 9.24063 72.8469C9.37064 72.9912 9.5364 73.112 9.73791 73.209C9.93942 73.3036 10.1507 73.382 10.3717 73.4443C10.5927 73.504 10.7958 73.5526 10.9811 73.5899L11.9952 73.799C12.2552 73.8513 12.5444 73.9234 12.8629 74.0155C13.1847 74.1076 13.4919 74.2333 13.7844 74.3927C14.0801 74.5495 14.3239 74.7511 14.5157 74.9975C14.7074 75.244 14.8033 75.5464 14.8033 75.9048C14.8033 76.318 14.6619 76.6914 14.3792 77.025C14.0996 77.3585 13.6901 77.6236 13.1506 77.8203C12.6143 78.0169 11.9627 78.1152 11.1956 78.1152C10.4806 78.1152 9.86142 78.0269 9.33814 77.8501C8.81811 77.6734 8.40859 77.427 8.10957 77.1108C7.81381 76.7947 7.64642 76.4276 7.60742 76.0094H8.85549C8.88799 76.2981 9.01475 76.5371 9.23576 76.7263C9.46002 76.913 9.74278 77.0524 10.0841 77.1445C10.4286 77.2341 10.7991 77.2789 11.1956 77.2789C11.6571 77.2789 12.0715 77.2216 12.4388 77.1071C12.8061 76.9901 13.097 76.8283 13.3115 76.6217C13.526 76.4126 13.6332 76.1687 13.6332 75.8899C13.6332 75.636 13.5406 75.4294 13.3554 75.2701C13.1701 75.1108 12.9263 74.9813 12.6241 74.8818C12.3218 74.7822 11.9952 74.6951 11.6441 74.6204L10.4156 74.3516C9.63553 74.1798 9.018 73.9346 8.56297 73.616C8.10795 73.2974 7.88044 72.8805 7.88044 72.3652C7.88044 71.9371 8.03157 71.5637 8.33384 71.2451C8.63935 70.924 9.04887 70.6751 9.5624 70.4983C10.0792 70.3191 10.6561 70.2295 11.2931 70.2295C11.9366 70.2295 12.5087 70.3179 13.0092 70.4946C13.5097 70.6688 13.9063 70.9078 14.1988 71.2115C14.4945 71.5152 14.6505 71.8599 14.6668 72.2457H13.4967Z" fill="white"/>
    <path d="M25.4902 74.1574C25.4902 74.9639 25.3001 75.6609 24.9198 76.2483C24.5395 76.8358 24.0179 77.2888 23.3548 77.6074C22.6918 77.9261 21.9345 78.0854 21.083 78.0854C20.2314 78.0854 19.4741 77.9261 18.8111 77.6074C18.1481 77.2888 17.6264 76.8358 17.2461 76.2483C16.8659 75.6609 16.6757 74.9639 16.6757 74.1574C16.6757 73.3509 16.8659 72.654 17.2461 72.0665C17.6264 71.4791 18.1481 71.026 18.8111 70.7074C19.4741 70.3888 20.2314 70.2295 21.083 70.2295C21.9345 70.2295 22.6918 70.3888 23.3548 70.7074C24.0179 71.026 24.5395 71.4791 24.9198 72.0665C25.3001 72.654 25.4902 73.3509 25.4902 74.1574ZM24.3201 74.1574C24.3201 73.4953 24.1755 72.9365 23.8862 72.481C23.6002 72.0254 23.2118 71.6807 22.7211 71.4467C22.2335 71.2127 21.6875 71.0957 21.083 71.0957C20.4784 71.0957 19.9308 71.2127 19.44 71.4467C18.9525 71.6807 18.5641 72.0254 18.2748 72.481C17.9888 72.9365 17.8458 73.4953 17.8458 74.1574C17.8458 74.8196 17.9888 75.3784 18.2748 75.8339C18.5641 76.2894 18.9525 76.6342 19.44 76.8682C19.9308 77.1021 20.4784 77.2191 21.083 77.2191C21.6875 77.2191 22.2335 77.1021 22.7211 76.8682C23.2118 76.6342 23.6002 76.2894 23.8862 75.8339C24.1755 75.3784 24.3201 74.8196 24.3201 74.1574Z" fill="white"/>
    <path d="M27.7978 77.9808V70.334H29.0068V77.1594H33.6481V77.9808H27.7978Z" fill="white"/>
    <path d="M42.3471 70.334H43.5561V75.397C43.5561 75.9198 43.3953 76.3865 43.0735 76.7972C42.755 77.2054 42.3048 77.5278 41.7231 77.7643C41.1413 77.9982 40.4587 78.1152 39.6754 78.1152C38.8922 78.1152 38.2096 77.9982 37.6278 77.7643C37.0461 77.5278 36.5943 77.2054 36.2725 76.7972C35.954 76.3865 35.7947 75.9198 35.7947 75.397V70.334H37.0038V75.3224C37.0038 75.6957 37.1111 76.0281 37.3256 76.3193C37.5401 76.608 37.8456 76.8358 38.2421 77.0026C38.6419 77.1669 39.1197 77.249 39.6754 77.249C40.2312 77.249 40.709 77.1669 41.1088 77.0026C41.5085 76.8358 41.8141 76.608 42.0253 76.3193C42.2398 76.0281 42.3471 75.6957 42.3471 75.3224V70.334Z" fill="white"/>
    <path d="M45.6992 71.1555V70.334H53.1876V71.1555H50.0479V77.9808H48.8388V71.1555H45.6992Z" fill="white"/>
    <path d="M56.5372 70.334V77.9808H55.3281V70.334H56.5372Z" fill="white"/>
    <path d="M67.6604 74.1574C67.6604 74.9639 67.4703 75.6609 67.09 76.2483C66.7098 76.8358 66.1881 77.2888 65.5251 77.6074C64.862 77.9261 64.1048 78.0854 63.2532 78.0854C62.4017 78.0854 61.6444 77.9261 60.9813 77.6074C60.3183 77.2888 59.7966 76.8358 59.4164 76.2483C59.0361 75.6609 58.846 74.9639 58.846 74.1574C58.846 73.3509 59.0361 72.654 59.4164 72.0665C59.7966 71.4791 60.3183 71.026 60.9813 70.7074C61.6444 70.3888 62.4017 70.2295 63.2532 70.2295C64.1048 70.2295 64.862 70.3888 65.5251 70.7074C66.1881 71.026 66.7098 71.4791 67.09 72.0665C67.4703 72.654 67.6604 73.3509 67.6604 74.1574ZM66.4904 74.1574C66.4904 73.4953 66.3457 72.9365 66.0565 72.481C65.7705 72.0254 65.3821 71.6807 64.8913 71.4467C64.4038 71.2127 63.8577 71.0957 63.2532 71.0957C62.6487 71.0957 62.101 71.2127 61.6102 71.4467C61.1227 71.6807 60.7343 72.0254 60.4451 72.481C60.159 72.9365 60.016 73.4953 60.016 74.1574C60.016 74.8196 60.159 75.3784 60.4451 75.8339C60.7343 76.2894 61.1227 76.6342 61.6102 76.8682C62.101 77.1021 62.6487 77.2191 63.2532 77.2191C63.8577 77.2191 64.4038 77.1021 64.8913 76.8682C65.3821 76.6342 65.7705 76.2894 66.0565 75.8339C66.3457 75.3784 66.4904 74.8196 66.4904 74.1574Z" fill="white"/>
    <path d="M77.8854 70.334V77.9808H76.7154L71.2746 71.9769H71.1771V77.9808H69.968V70.334H71.1381L76.5983 76.3529H76.6959V70.334H77.8854Z" fill="white"/>
    <path d="M86.0396 72.2457C85.9811 71.8674 85.7439 71.5737 85.3278 71.3646C84.9118 71.1555 84.4015 71.0509 83.797 71.0509C83.355 71.0509 82.9682 71.1057 82.6367 71.2152C82.3084 71.3247 82.0517 71.4753 81.8664 71.667C81.6844 71.8587 81.5934 72.0765 81.5934 72.3204C81.5934 72.5245 81.6568 72.7 81.7835 72.8469C81.9135 72.9912 82.0793 73.112 82.2808 73.209C82.4823 73.3036 82.6936 73.382 82.9146 73.4443C83.1356 73.504 83.3387 73.5526 83.524 73.5899L84.538 73.799C84.7981 73.8513 85.0873 73.9234 85.4058 74.0155C85.7276 74.1076 86.0347 74.2333 86.3273 74.3927C86.623 74.5495 86.8668 74.7511 87.0585 74.9975C87.2503 75.244 87.3462 75.5464 87.3462 75.9048C87.3462 76.318 87.2048 76.6914 86.922 77.025C86.6425 77.3585 86.233 77.6236 85.6935 77.8203C85.1572 78.0169 84.5055 78.1152 83.7385 78.1152C83.0235 78.1152 82.4043 78.0269 81.881 77.8501C81.361 77.6734 80.9515 77.427 80.6525 77.1108C80.3567 76.7947 80.1893 76.4276 80.1503 76.0094H81.3984C81.4309 76.2981 81.5576 76.5371 81.7787 76.7263C82.0029 76.913 82.2857 77.0524 82.6269 77.1445C82.9715 77.2341 83.342 77.2789 83.7385 77.2789C84.2 77.2789 84.6144 77.2216 84.9817 77.1071C85.349 76.9901 85.6399 76.8283 85.8544 76.6217C86.0689 76.4126 86.1761 76.1687 86.1761 75.8899C86.1761 75.636 86.0835 75.4294 85.8982 75.2701C85.713 75.1108 85.4692 74.9813 85.167 74.8818C84.8647 74.7822 84.538 74.6951 84.187 74.6204L82.9585 74.3516C82.1784 74.1798 81.5609 73.9346 81.1059 73.616C80.6508 73.2974 80.4233 72.8805 80.4233 72.3652C80.4233 71.9371 80.5745 71.5637 80.8767 71.2451C81.1822 70.924 81.5918 70.6751 82.1053 70.4983C82.6221 70.3191 83.199 70.2295 83.836 70.2295C84.4795 70.2295 85.0516 70.3179 85.5521 70.4946C86.0526 70.6688 86.4491 70.9078 86.7417 71.2115C87.0374 71.5152 87.1934 71.8599 87.2097 72.2457H86.0396Z" fill="white"/>
    </g>
    <defs>
    <clipPath id="clip0_7_2395">
    <rect width="95" height="82.2437" fill="white"/>
    </clipPath>
    </defs>
    </svg>
    